<?xml version="1.0" encoding="UTF-8" standalone="no"?><!-- Generator: Gravit.io --><svg xmlns="http://www.w3.org/2000/svg" xmlns:xlink="http://www.w3.org/1999/xlink" style="isolation:isolate" viewBox="0 0 1024 1024" width="1024pt" height="1024pt"><defs><clipPath id="_clipPath_fMyMznd49VdMAlOQCwvRu1ptcKUBi7HF"><rect width="1024" height="1024"/></clipPath></defs><g clip-path="url(#_clipPath_fMyMznd49VdMAlOQCwvRu1ptcKUBi7HF)"><rect width="1024" height="1024" style="fill:rgb(255,0,0)" fill-opacity="0"/><g style="isolation:isolate"><path d=" M 18 702 C 14.442 515.856 54.452 367.533 122.925 276.944 C 131.245 265.936 138.021 245.798 138.048 232 C 138.101 203.992 140.787 168.678 146 151 C 179.667 129.778 222.01 122.121 273 128 C 384.261 65.416 512.937 51.759 659 87 C 701.377 71.993 743.721 67.337 761.221 69.681 C 774.897 71.513 786.666 84.182 787.487 97.956 Q 789 123.333 793.347 136.253 C 797.571 148.807 808.927 166.267 818.692 175.217 C 947.135 292.957 1014.842 478.664 1000 718 Q 949.785 776.529 855.14 821.161 C 850.648 823.28 846.331 821.023 845.508 816.125 C 840.607 786.974 833.637 759.67 816 743 C 804.737 712.19 791.09 695.544 781 691 C 779.995 663.662 783.015 631.682 783.48 629.707 C 784.871 623.798 789.792 615.851 794.463 611.973 C 823.974 587.471 857.938 563.282 877 508 C 896.062 452.718 887.177 388.291 880 360 C 872.823 331.709 824.704 257.237 769 224 C 713.296 190.763 662 182.333 621 182 C 580 181.667 495.771 203.977 434 257 C 372.229 310.023 357.589 379.123 361 453 C 364.411 526.877 440.365 621.215 500 640 C 559.635 658.785 605.308 668.301 653.026 671.116 C 661.29 671.604 674.201 674.592 681.84 677.785 C 823.5 737 800.5 870.5 636.978 879.154 C 628.159 879.621 613.841 880.382 605.023 880.852 C 343.75 894.786 128.841 843.53 18 702 Z " fill="#1a2b3c"/></g><g style="isolation:isolate"><ellipse vector-effect="non-scaling-stroke" cx="630.5000000000001" cy="425" rx="228.5" ry="207.00000000000003" fill="rgb(252,194,26)"/><ellipse vector-effect="non-scaling-stroke" cx="723.3970990273164" cy="621.2494529540481" rx="54.72967432873463" ry="35.75054704595186" fill="rgb(252,194,26)"/><path d=" M 694.906 368.464 C 689.261 340.888 703.114 314.726 725.824 310.077 C 748.533 305.427 771.554 324.041 777.199 351.616 C 782.845 379.192 768.991 405.355 746.282 410.004 C 723.572 414.653 700.552 396.04 694.906 368.464 Z " fill="rgb(47,47,47)"/><path d=" M 572 485 L 619 529 L 659 476 L 699 515 L 725 464" fill="none" vector-effect="non-scaling-stroke" stroke-width="16" stroke="rgb(47,47,47)" stroke-linejoin="round" stroke-linecap="round" stroke-miterlimit="3"/><path d=" M 478.662 399.428 C 473.684 371.724 488.165 345.904 510.98 341.804 C 533.795 337.704 556.359 356.868 561.338 384.572 C 566.316 412.276 551.835 438.096 529.02 442.196 C 506.205 446.296 483.641 427.132 478.662 399.428 Z " fill="rgb(47,47,47)"/></g><path d=" M 806 828 C 811.569 850.955 826.589 866.975 841.62 872.532 C 846.797 874.446 855.335 874.866 860.674 873.468 C 955.65 848.612 1008.336 799.299 1008.953 733 C 1008.979 730.24 1007.934 726.03 1006.62 723.603 C 1005.003 720.615 1001.679 717.291 999 718 C 958.987 761.475 907.713 797.535 853.417 821.203 C 849.875 822.747 846.393 820.923 845.645 817.132 C 838.051 778.639 829.061 752.649 818 748 C 822.086 779.092 818.096 805.768 806 828 Z " fill="rgb(255,255,255)"/><g style="isolation:isolate"><path d=" M 18 702 C 10.193 712.294 8.203 728.304 14 746 C 153 984 819.5 1007 802 834 C 843.857 751.998 808.21 684.685 715.853 641.704 C 704.344 636.348 684.866 630.123 672.385 627.812 Q 659 625.333 623 624 C 587 622.667 548.333 610 516 596 C 483.667 582 407.69 503.654 405 435 C 402.31 366.346 436 313 476 280 C 516 247 572.732 222.41 630 222 C 687.268 221.59 729 242.333 768 271 C 807 299.667 837.216 333.325 845 391 C 852.784 448.675 847.667 485.333 825 521 Q 802.333 556.667 770.902 578.313 C 768.749 579.796 765.49 582.492 763.63 584.331 C 758.084 589.811 743.771 623.998 742 658.5 L 781 687 L 787.014 635.884 C 788.11 626.565 795.077 614.406 802.561 608.748 C 842.273 578.727 866.114 542.372 877 507 C 887.886 471.628 894.397 400.613 880 360 C 865.603 319.387 840.722 263.334 769 224 C 697.278 184.666 663.667 182 621 182 C 578.333 182 487.735 210.538 434 257 C 380.265 303.462 351.626 372.281 361 453 C 370.374 533.719 436.741 619.585 500 640 C 563.259 660.415 615.892 669.534 653.017 671.291 C 661.286 671.682 674.237 674.506 681.919 677.592 C 817.333 732 802.5 862 636.922 878.421 C 628.134 879.292 613.843 880.417 605.027 880.931 C 333.141 896.784 132.838 836.148 18 702" fill="rgb(255,255,255)"/><path d=" M 801 834 C 848.939 753.038 801.303 679.401 714 641" fill="none" vector-effect="non-scaling-stroke" stroke-width="10" stroke="rgb(191,191,191)" stroke-linejoin="miter" stroke-linecap="round" stroke-miterlimit="3"/></g><g style="isolation:isolate"><line x1="1004" y1="278" x2="813" y2="405" vector-effect="non-scaling-stroke" stroke-width="22" stroke="rgb(149,168,184)" stroke-linejoin="miter" stroke-linecap="round" stroke-miterlimit="3"/><line x1="246" y1="461" x2="457" y2="487" vector-effect="non-scaling-stroke" stroke-width="22" stroke="rgb(149,168,184)" stroke-linejoin="miter" stroke-linecap="round" stroke-miterlimit="3"/><line x1="259" y1="531" x2="484" y2="532" vector-effect="non-scaling-stroke" stroke-width="22" stroke="rgb(149,168,184)" stroke-linejoin="miter" stroke-linecap="round" stroke-miterlimit="3"/><line x1="1010" y1="358" x2="804" y2="458" vector-effect="non-scaling-stroke" stroke-width="22" stroke="rgb(149,168,184)" stroke-linejoin="miter" stroke-linecap="round" stroke-miterlimit="3"/></g></g></svg>
