<?xml version="1.0" encoding="UTF-8"?>
<svg width="1024pt" height="1024pt" style="isolation:isolate" viewBox="0 0 1024 1024"
    xmlns="http://www.w3.org/2000/svg">
    <defs>
        <clipPath id="a">
            <rect width="1024" height="1024" />
        </clipPath>
    </defs>
    <g clip-path="url(#a)">
        <rect width="1024" height="1024" fill-opacity="0" />
        <g style="isolation:isolate">
            <path
                d="m18 702c-3.558-186.14 36.452-334.47 104.92-425.06 8.32-11.008 15.096-31.146 15.123-44.944 0.053-28.008 2.739-63.322 7.952-81 33.667-21.222 76.01-28.879 127-23 111.26-62.584 239.94-76.241 386-41 42.377-15.007 84.721-19.663 102.22-17.319 13.676 1.832 25.445 14.501 26.266 28.275q1.513 25.377 5.86 38.297c4.224 12.554 15.58 30.014 25.345 38.964 128.44 117.74 196.15 303.45 181.31 542.78q-51.215 58.529-145.86 103.16c-4.492 2.119-8.809-0.138-9.632-5.036-4.901-29.151-11.871-56.455-29.508-73.125-11.263-30.81-23.91-47.456-34-52-1.005-27.338 2.015-59.318 2.48-61.293 1.391-5.909 6.312-13.856 10.983-17.734 29.511-24.502 63.475-48.691 82.537-103.97s10.177-119.71 3-148-55.296-102.76-111-136-107-41.667-148-42-125.23 21.977-187 75-76.411 122.12-73 196c3.411 73.878 79.365 168.22 139 187s106.31 28.301 154.03 31.116c8.264 0.488 21.175 3.476 28.814 6.669 141.66 59.215 117.66 195.72-45.862 204.37-8.819 0.467-23.137 1.228-31.955 1.698-261.27 13.934-476.18-40.322-587.02-181.85z"
                fill="#1a2b3c" />
        </g>
        <g style="isolation:isolate">
            <ellipse cx="630.5" cy="425" rx="228.5" ry="207" fill="#fcc21a" vector-effect="non-scaling-stroke" />
            <ellipse cx="723.4" cy="621.25" rx="54.73" ry="35.751" fill="#fcc21a" vector-effect="non-scaling-stroke" />
            <path
                d="m694.91 368.46c-5.645-27.576 8.208-53.738 30.918-58.387 22.709-4.65 45.73 13.964 51.375 41.539 5.646 27.576-8.208 53.739-30.917 58.388-22.71 4.649-45.73-13.964-51.376-41.54z"
                fill="#2f2f2f" />
            <path d="m572 485 47 44 40-53 40 39 26-51" fill="none" stroke="#2f2f2f" stroke-linecap="round"
                stroke-linejoin="round" stroke-miterlimit="3" stroke-width="16" vector-effect="non-scaling-stroke" />
            <path
                d="m478.66 399.43c-4.978-27.704 9.503-53.524 32.318-57.624s45.379 15.064 50.358 42.768c4.978 27.704-9.503 53.524-32.318 57.624s-45.379-15.064-50.358-42.768z"
                fill="#2f2f2f" />
        </g>
        <g style="isolation:isolate">
            <path
                d="m806 828c5.569 22.955 20.589 38.975 35.62 44.532 5.177 1.914 13.715 2.334 19.054 0.936 94.976-24.856 147.66-74.169 148.28-140.47 0.026-2.76-1.019-6.97-2.333-9.397-1.617-2.988-4.941-11.312-7.62-10.603-40.013 43.475-91.287 79.535-145.58 103.2-3.542 1.544-7.024-0.28-7.772-4.071-7.594-38.493-16.584-63.483-27.645-68.132 4.086 31.092 0.096 61.768-12 84z"
                fill="#fff" />
        </g>
        <g style="isolation:isolate">
            <path
                d="m18 701c-7.807 10.294-9.797 27.304-4 45 139 238 805.5 261 788 88 41.857-82.002 6.21-149.32-86.147-192.3-11.509-5.356-30.987-11.581-43.468-13.892q-13.385-2.479-49.385-3.812c-36-1.333-74.667-14-107-28s-108.31-92.346-111-161 31-122 71-155 96.732-57.59 154-58 99 20.333 138 49 69.216 62.325 77 120 2.667 94.333-20 130q-22.667 35.667-54.098 57.313c-2.153 1.483-5.412 4.179-7.272 6.018-5.546 5.48-19.859 39.667-21.63 74.169l39 28.5 6.014-51.116c1.096-9.319 8.063-21.478 15.547-27.136 39.712-30.021 68.553-67.376 79.439-102.75s16.397-106.39 2-147-41.278-102.67-113-142-109.33-42-152-42-134.26 28.538-188 75-82.374 126.28-73 207 76.741 166.58 140 187 117.89 28.534 155.02 30.291c8.269 0.391 21.22 3.215 28.902 6.301 135.41 54.408 120.58 180.41-44.997 196.83-8.788 0.871-23.079 1.996-31.895 2.51-271.89 15.853-472.19-44.783-587.03-178.93"
                fill="#fff" />
            <path d="m801 834c47.939-80.962 0.303-154.6-87-193" fill="none" stroke="#bfbfbf" stroke-linecap="round"
                stroke-miterlimit="3" stroke-width="10" vector-effect="non-scaling-stroke" />
        </g>
        <g stroke="#95a8b8" stroke-linecap="round" stroke-miterlimit="3" stroke-width="22" style="isolation:isolate">
            <line x1="1004" x2="813" y1="278" y2="405" vector-effect="non-scaling-stroke" />
            <line x1="246" x2="457" y1="461" y2="487" vector-effect="non-scaling-stroke" />
            <line x1="259" x2="484" y1="531" y2="532" vector-effect="non-scaling-stroke" />
            <line x1="1010" x2="804" y1="358" y2="458" vector-effect="non-scaling-stroke" />
        </g>
    </g>
</svg>